<svg width="513" height="521" viewBox="0 0 513 521" fill="none" xmlns="http://www.w3.org/2000/svg">
<path d="M429.337 273.377C432.793 274.337 436.481 273.996 439.703 272.419C442.924 270.841 445.455 268.137 446.816 264.818C448.177 261.499 448.273 257.796 447.086 254.411C445.899 251.026 443.512 248.194 440.376 246.452L409.276 211.169L382.971 216.852L419.968 253.09C419.059 255.016 418.583 257.119 418.574 259.249C418.565 261.38 419.023 263.486 419.916 265.421C420.809 267.355 422.116 269.07 423.744 270.444C425.371 271.819 427.281 272.82 429.337 273.377Z" fill="#A0616A"/>
<path d="M327.016 147.059L404.531 244.359L428.159 233.511L337.049 91.666L327.016 147.059Z" fill="#3F3D56"/>
<path d="M144.333 520.671C149.028 520.671 152.835 516.864 152.835 512.169C152.835 507.473 149.028 503.667 144.333 503.667C139.637 503.667 135.831 507.473 135.831 512.169C135.831 516.864 139.637 520.671 144.333 520.671Z" fill="#3F3D56"/>
<path d="M150.516 340.972C150.516 340.972 170.612 279.913 172.158 275.662C173.703 271.411 189.934 278.367 194.185 279.526C198.436 280.685 197.277 284.936 197.277 284.936L175.636 347.541L182.205 350.633L202.301 287.641C213.894 275.661 205.392 274.889 205.392 274.889C205.392 274.889 180.66 266.387 171.385 265.614C162.11 264.841 165.588 276.048 165.588 276.048L143.174 335.561L150.516 340.972Z" fill="#3F3D56"/>
<path d="M198.822 355.657L198.819 355.653C195.967 351.564 191.918 348.46 187.229 346.768C187.063 346.706 186.869 346.637 186.649 346.559C176.003 342.838 101.824 322.808 101.824 322.808C101.824 322.808 87.1385 317.398 80.5688 332.083C73.9992 346.768 34.9678 468.5 34.9678 468.5C34.9678 468.5 111.307 509.325 133.563 513.769C134.937 514.1 136.354 514.212 137.763 514.101C141.546 513.577 145.27 512.688 148.882 511.446C152.876 510.144 156.676 508.307 160.178 505.986L203.46 376.525C203.46 376.525 209.643 362.226 198.822 355.657Z" fill="#D96942"/>
<path d="M198.822 355.657L198.818 355.653C195.967 351.564 191.918 348.46 187.229 346.768C187.063 346.706 186.869 346.637 186.649 346.56C190.15 352.696 191.48 362.226 191.48 362.226C191.48 362.226 148.97 488.595 145.106 500.575C142.161 509.707 136.221 512.81 133.562 513.769C134.937 514.1 136.354 514.212 137.763 514.101C141.546 513.577 145.27 512.688 148.881 511.446C149.938 510.235 150.873 508.924 151.675 507.531C151.675 507.531 194.958 378.071 198.822 371.887C202.687 365.704 198.822 355.657 198.822 355.657Z" fill="#3F3D56"/>
<path d="M118.248 520.864C122.943 520.864 126.75 517.058 126.75 512.362C126.75 507.667 122.943 503.86 118.248 503.86C113.553 503.86 109.746 507.667 109.746 512.362C109.746 517.058 113.553 520.864 118.248 520.864Z" fill="#3F3D56"/>
<path d="M35.7402 485.117C40.4357 485.117 44.2421 481.311 44.2421 476.615C44.2421 471.92 40.4357 468.114 35.7402 468.114C31.0447 468.114 27.2383 471.92 27.2383 476.615C27.2383 481.311 31.0447 485.117 35.7402 485.117Z" fill="#3F3D56"/>
<path d="M185.6 280.837C182.18 281.919 178.482 281.71 175.206 280.248C171.931 278.786 169.305 276.174 167.827 272.906C166.349 269.637 166.121 265.94 167.187 262.515C168.252 259.09 170.537 256.175 173.609 254.322L203.432 217.953L229.923 222.696L194.24 260.229C195.218 262.122 195.768 264.206 195.853 266.335C195.938 268.464 195.555 270.585 194.731 272.55C193.907 274.515 192.663 276.275 191.085 277.707C189.507 279.138 187.635 280.207 185.6 280.837Z" fill="#A0616A"/>
<path d="M388.866 440.865L407.34 440.575L405.118 503.541H388.869L388.866 440.865Z" fill="#A0616A"/>
<path d="M384.724 498.236L416.725 498.235H416.726C422.135 498.235 427.322 500.384 431.146 504.208C434.971 508.033 437.119 513.22 437.12 518.628V519.291L384.725 519.293L384.724 498.236Z" fill="#2F2E41"/>
<path d="M266.549 424.165L286.73 437.121L246.362 485.686L232.688 476.907L266.549 424.165Z" fill="#A0616A"/>
<path d="M232.066 470.203L258.995 487.492L258.996 487.493C263.547 490.415 266.751 495.025 267.903 500.31C269.055 505.594 268.061 511.12 265.139 515.672L264.781 516.229L220.69 487.923L232.066 470.203Z" fill="#2F2E41"/>
<path d="M259.359 231.894C259.359 231.894 304.199 82.9668 318.609 80.9542C333.019 78.9417 356.237 119.167 356.237 119.167C386.34 157.575 417.381 281.988 417.381 281.988C417.381 281.988 365.634 285.226 327.807 305.352C289.981 325.477 245.34 304.333 245.34 304.333L259.359 231.894Z" fill="#3F3D56"/>
<path opacity="0.1" d="M259.359 231.894C259.359 231.894 304.199 82.9668 318.609 80.9543C333.019 78.9417 350.34 119.576 350.34 119.576C365.34 181.576 417.381 281.988 417.381 281.988C417.381 281.988 365.634 285.226 327.807 305.352C289.981 325.477 245.34 304.333 245.34 304.333L259.359 231.894Z" fill="black"/>
<path d="M296.147 187.336V262.171L287.34 370.575L243.34 452.575L264.34 467.575L324.34 389.575L348.071 312.126L385.34 483.575L413.34 481.575L393.894 243.864L356.993 176.954L296.147 187.336Z" fill="#2F2E41"/>
<path d="M341.356 114.954C355.356 128.954 342.356 143.954 342.356 143.954L358.356 179.954L295.356 196.954L273.34 98.5755L288.34 82.5755C318.34 81.5755 318.356 80.9538 318.356 80.9538C323.612 86.0976 341.356 114.954 341.356 114.954Z" fill="#CCCCCC"/>
<path d="M270.455 88.64C265.247 92.4703 261.594 98.0493 260.166 104.354C258.737 110.659 259.629 117.268 262.678 122.969C269.896 136.747 277.659 158.089 273.656 181.519C266.412 223.921 243.19 256.137 230.254 266.483C225.751 270.084 225.593 275.329 226.255 279.095C228.101 289.616 238.302 301.554 245.357 303.948C245.832 304.105 246.33 304.183 246.83 304.179C258.292 304.183 286.486 267.678 318.885 196.369C339.063 151.958 324.419 116.349 308.581 94.2967C306.502 91.4113 303.871 88.9671 300.84 87.1057C297.81 85.2443 294.44 84.0026 290.927 83.4526C287.413 82.9026 283.825 83.0553 280.371 83.9017C276.917 84.7481 273.665 86.2715 270.803 88.3836L270.455 88.64Z" fill="#3F3D56"/>
<path d="M300.34 131.575L209.356 250.954L185.356 240.954L271.356 95.954L300.34 131.575Z" fill="#3F3D56"/>
<path d="M327.328 67.9928H264.749C263.462 67.9914 262.227 67.4794 261.317 66.5691C260.407 65.6589 259.895 64.4248 259.894 63.1375V36.1638C259.891 31.4156 260.824 26.7134 262.639 22.326C264.455 17.9385 267.117 13.9517 270.473 10.5933C273.83 7.23492 277.815 4.57081 282.202 2.75317C286.588 0.935538 291.29 0 296.038 0C300.787 0 305.488 0.935538 309.875 2.75317C314.261 4.57081 318.247 7.23492 321.603 10.5933C324.96 13.9517 327.622 17.9385 329.437 22.326C331.253 26.7134 332.186 31.4156 332.183 36.1638V63.1375C332.182 64.4248 331.67 65.6589 330.759 66.5691C329.849 67.4794 328.615 67.9914 327.328 67.9928Z" fill="#2F2E41"/>
<path d="M326.718 53.5759C333.738 40.7338 329.019 24.6323 316.177 17.6122C303.335 10.5921 287.233 15.3117 280.213 28.1538C273.193 40.9959 277.913 57.0974 290.755 64.1175C303.597 71.1376 319.698 66.418 326.718 53.5759Z" fill="#A0616A"/>
<path d="M340.734 38.8612H302.469L302.076 33.3674L300.114 38.8612H294.222L293.445 27.9727L289.556 38.8612H278.155V38.3218C278.164 30.7413 281.179 23.4737 286.539 18.1135C291.899 12.7533 299.167 9.73818 306.747 9.72961H312.142C319.723 9.73817 326.99 12.7533 332.35 18.1135C337.711 23.4737 340.726 30.7413 340.734 38.3218V38.8612Z" fill="#2F2E41"/>
<path d="M302.155 73.028C301.867 73.0278 301.58 73.0024 301.296 72.9522L273.276 68.0084V21.7H304.121L303.357 22.5903C292.732 34.9814 300.737 55.0737 306.454 65.9475C306.875 66.7439 307.063 67.6431 306.996 68.5416C306.929 69.4401 306.609 70.3013 306.074 71.0261C305.625 71.6459 305.037 72.1505 304.355 72.4985C303.674 72.8465 302.92 73.028 302.155 73.028Z" fill="#2F2E41"/>
<path d="M0 520.5C0 520.633 0.0635855 520.76 0.176769 520.854C0.289953 520.947 0.443463 521 0.603529 521H512.396C512.557 521 512.71 520.947 512.823 520.854C512.936 520.76 513 520.633 513 520.5C513 520.367 512.936 520.24 512.823 520.146C512.71 520.053 512.557 520 512.396 520H0.603529C0.443463 520 0.289953 520.053 0.176769 520.146C0.0635855 520.24 0 520.367 0 520.5Z" fill="#CBCBCB"/>
</svg>
