<svg width="938" height="654" viewBox="0 0 938 654" fill="none" xmlns="http://www.w3.org/2000/svg">
<g clip-path="url(#clip0_782_2)">
<path d="M195.992 26.994L200.088 364.913L377.078 451.126L372.982 113.208L195.992 26.994Z" fill="#FCF7F0"/>
<path d="M142.208 0L9.95703 271.502L189.403 358.913L185.307 20.994L142.208 0Z" fill="#FCF7F0"/>
<path d="M937.597 381.414L580.403 207.422L584.499 545.34L805.345 652.916L937.597 381.414Z" fill="#FCF7F0"/>
<path d="M388.982 113.208L393.078 451.126L570.069 537.34L565.973 199.422L388.982 113.208Z" fill="#FCF7F0"/>
<path d="M450.5 382.945L445.5 494.944C445.5 494.944 458.5 600.944 455.5 603.944C452.5 606.944 444.5 612.944 450.5 619.944C456.5 626.944 478.5 631.944 479.5 627.944C480.5 623.944 482.5 509.944 482.5 509.944L489.5 374.945L450.5 382.945Z" fill="#2F2E41"/>
<path opacity="0.2" d="M450.5 382.945L445.5 494.944C445.5 494.944 458.5 600.944 455.5 603.944C452.5 606.944 444.5 612.944 450.5 619.944C456.5 626.944 478.5 631.944 479.5 627.944C480.5 623.944 482.5 509.944 482.5 509.944L489.5 374.945L450.5 382.945Z" fill="black"/>
<path d="M455.5 617.944C455.5 617.944 430.5 636.944 427.5 636.944C424.5 636.944 397.5 645.944 416.5 649.944C435.5 653.944 481.5 651.944 482.5 645.944C483.5 639.944 479.5 621.736 479.5 621.736L455.5 617.944Z" fill="#2F2E41"/>
<path opacity="0.2" d="M455.5 617.944C455.5 617.944 430.5 636.944 427.5 636.944C424.5 636.944 397.5 645.944 416.5 649.944C435.5 653.944 481.5 651.944 482.5 645.944C483.5 639.944 479.5 621.736 479.5 621.736L455.5 617.944Z" fill="black"/>
<path d="M393.5 298.945C393.5 298.945 382.5 302.945 382.5 305.945C382.5 308.945 372.5 346.945 370.5 348.945C368.5 350.945 367.5 359.945 367.5 359.945C367.5 359.945 357.5 382.945 359.5 382.945C361.5 382.945 378.5 378.945 379.5 382.945C380.5 386.945 388.5 357.945 388.5 357.945L405.5 323.945L393.5 298.945Z" fill="#D96942"/>
<path d="M359.5 386.945C359.5 386.945 362.5 408.944 370.5 410.944C378.5 412.944 370.5 382.945 370.5 382.945L359.5 386.945Z" fill="#FFB8B8"/>
<path d="M385.5 286.944C385.5 286.944 391.5 299.944 394.5 306.944C397.5 313.944 425.5 288.944 425.5 288.944C425.5 288.944 410.5 277.944 410.5 272.944C410.5 267.944 385.5 286.944 385.5 286.944Z" fill="#FFB8B8"/>
<path d="M97.0389 612C103.745 636.791 126.716 652.144 126.716 652.144C126.716 652.144 138.814 627.304 132.107 602.513C125.401 577.723 102.43 562.369 102.43 562.369C102.43 562.369 90.3325 587.209 97.0389 612Z" fill="#3F3D56"/>
<path d="M106.894 606.672C125.296 624.586 127.544 652.124 127.544 652.124C127.544 652.124 99.9556 650.618 81.5533 632.704C63.151 614.79 60.9033 587.252 60.9033 587.252C60.9033 587.252 88.4916 588.758 106.894 606.672Z" fill="#D96942"/>
<path d="M335.5 652.944C317.502 652.944 299.908 647.607 284.943 637.608C269.978 627.609 258.315 613.397 251.427 596.769C244.539 580.141 242.737 561.844 246.249 544.191C249.76 526.539 258.427 510.324 271.153 497.598C283.88 484.871 300.095 476.204 317.747 472.693C335.399 469.182 353.696 470.984 370.324 477.871C386.952 484.759 401.165 496.423 411.164 511.388C421.163 526.352 426.5 543.946 426.5 561.944C426.473 586.071 416.877 609.201 399.817 626.261C382.757 643.321 359.626 652.917 335.5 652.944ZM335.5 472.944C317.898 472.944 300.69 478.164 286.054 487.944C271.418 497.723 260.011 511.623 253.275 527.886C246.539 544.148 244.776 562.043 248.21 579.308C251.644 596.572 260.121 612.43 272.568 624.877C285.014 637.324 300.873 645.8 318.137 649.234C335.401 652.668 353.296 650.906 369.559 644.17C385.821 637.434 399.721 626.026 409.501 611.39C419.28 596.754 424.5 579.547 424.5 561.944C424.473 538.348 415.088 515.726 398.403 499.041C381.718 482.356 359.096 472.971 335.5 472.944Z" fill="#2F2E41"/>
<path d="M615.5 652.944C597.502 652.944 579.908 647.607 564.943 637.608C549.978 627.609 538.315 613.397 531.427 596.769C524.539 580.141 522.737 561.844 526.249 544.191C529.76 526.539 538.427 510.324 551.153 497.598C563.88 484.871 580.095 476.204 597.747 472.693C615.399 469.182 633.696 470.984 650.324 477.871C666.952 484.759 681.165 496.423 691.164 511.388C701.163 526.352 706.5 543.946 706.5 561.944C706.473 586.071 696.877 609.201 679.817 626.261C662.757 643.321 639.626 652.917 615.5 652.944ZM615.5 472.944C597.897 472.944 580.69 478.164 566.054 487.944C551.418 497.723 540.011 511.623 533.275 527.886C526.539 544.148 524.776 562.043 528.21 579.308C531.644 596.572 540.121 612.43 552.568 624.877C565.014 637.324 580.873 645.8 598.137 649.234C615.401 652.668 633.296 650.906 649.559 644.17C665.821 637.434 679.721 626.026 689.501 611.39C699.28 596.754 704.5 579.547 704.5 561.944C704.473 538.348 695.088 515.726 678.403 499.041C661.718 482.356 639.096 472.971 615.5 472.944Z" fill="#2F2E41"/>
<path d="M335.5 567.945C338.814 567.945 341.5 565.258 341.5 561.945C341.5 558.631 338.814 555.945 335.5 555.945C332.186 555.945 329.5 558.631 329.5 561.945C329.5 565.258 332.186 567.945 335.5 567.945Z" fill="#2F2E41"/>
<path d="M617.5 567.945C620.814 567.945 623.5 565.258 623.5 561.945C623.5 558.631 620.814 555.945 617.5 555.945C614.186 555.945 611.5 558.631 611.5 561.945C611.5 565.258 614.186 567.945 617.5 567.945Z" fill="#2F2E41"/>
<path d="M344.42 553.337L342.58 552.552L394.845 429.931L543.055 432.955L543.342 433.405L616.342 547.405L614.658 548.484L541.945 434.934L396.155 431.958L344.42 553.337Z" fill="#2F2E41"/>
<path d="M500.125 576.128L538.538 440.672L540.462 441.217L502.875 573.761L603.374 560.952L603.626 562.937L500.125 576.128Z" fill="#2F2E41"/>
<path d="M391.214 460.244L389.786 461.645L492.786 566.645L494.214 565.244L391.214 460.244Z" fill="#2F2E41"/>
<path d="M548.531 408.681L542.54 430.683L544.47 431.208L550.46 409.206L548.531 408.681Z" fill="#2F2E41"/>
<path d="M398.476 424.166L396.524 423.723L401.247 402.945H384.5V389.945H386.5V400.945H403.753L398.476 424.166Z" fill="#2F2E41"/>
<path d="M512.5 388.944C512.5 388.944 512.5 382.944 525.5 385.944C538.5 388.944 578.5 396.944 581.5 395.944C584.5 394.944 583.5 401.944 570.5 404.944C557.5 407.944 542.5 400.944 539.5 398.944C536.5 396.944 512.5 388.944 512.5 388.944Z" fill="#2F2E41"/>
<path d="M476.5 567.945H450.5V577.945H476.5V567.945Z" fill="#D96942"/>
<path d="M501.5 594.944C497.544 594.944 493.678 593.771 490.389 591.574C487.1 589.376 484.536 586.253 483.022 582.598C481.509 578.944 481.113 574.922 481.884 571.043C482.656 567.163 484.561 563.599 487.358 560.802C490.155 558.005 493.719 556.1 497.598 555.329C501.478 554.557 505.499 554.953 509.154 556.467C512.808 557.981 515.932 560.544 518.129 563.833C520.327 567.122 521.5 570.989 521.5 574.944C521.494 580.247 519.385 585.331 515.636 589.08C511.886 592.83 506.802 594.939 501.5 594.944ZM501.5 556.944C497.94 556.944 494.46 558 491.5 559.978C488.54 561.956 486.233 564.767 484.87 568.056C483.508 571.345 483.151 574.964 483.846 578.456C484.54 581.948 486.255 585.155 488.772 587.672C491.289 590.19 494.497 591.904 497.988 592.599C501.48 593.293 505.099 592.937 508.388 591.574C511.677 590.212 514.489 587.905 516.466 584.945C518.444 581.985 519.5 578.505 519.5 574.944C519.494 570.172 517.596 565.597 514.222 562.223C510.847 558.848 506.272 556.95 501.5 556.944Z" fill="#2F2E41"/>
<path d="M394.5 296.945C407.755 296.945 418.5 286.199 418.5 272.945C418.5 259.69 407.755 248.945 394.5 248.945C381.245 248.945 370.5 259.69 370.5 272.945C370.5 286.199 381.245 296.945 394.5 296.945Z" fill="#FFB8B8"/>
<path d="M470.5 384.945C470.5 384.945 401.5 424.944 402.5 437.944C403.5 450.944 455.5 521.944 455.5 521.944C455.5 521.944 459.5 542.944 463.5 542.944C467.5 542.944 492.5 551.944 493.5 545.944C494.5 539.944 485.5 532.944 486.5 528.944C487.5 524.944 442.5 451.944 442.5 451.944C442.5 451.944 538.807 415.945 518.654 384.945C498.5 353.945 470.5 384.945 470.5 384.945Z" fill="#2F2E41"/>
<path d="M472.5 538.944C472.5 538.944 460.5 541.944 458.5 545.944C456.5 549.944 421.5 562.944 431.5 565.944C441.5 568.944 499.5 569.944 501.5 567.944C503.5 565.944 501.5 542.732 493.5 542.838C485.5 542.944 476.5 545.944 472.5 538.944Z" fill="#2F2E41"/>
<path d="M394.5 309.945L417 282.445C417 282.445 442.5 274.945 453.5 289.945C464.5 304.945 494.5 341.945 504.5 349.945C514.5 357.945 528.5 388.944 523.5 389.944C518.5 390.944 490.5 378.945 479.5 386.945C468.5 394.945 447.5 395.944 446.5 391.944C445.5 387.944 385.5 320.945 385.5 311.945C385.5 302.945 391.894 301.013 391.894 301.013L394.5 309.945Z" fill="#D96942"/>
<path d="M406.585 389.449L376.415 378.783C374.853 378.231 373.139 379.049 372.587 380.611C372.035 382.173 372.853 383.888 374.415 384.44L404.585 395.106C406.147 395.658 407.861 394.84 408.414 393.278C408.966 391.716 408.147 390.002 406.585 389.449Z" fill="#2F2E41"/>
<path d="M338.5 376.945C338.5 376.945 303.5 386.944 306.5 397.944C309.5 408.944 341.5 384.945 341.5 384.945L338.5 376.945Z" fill="#FFB8B8"/>
<path d="M429.5 289.945C429.5 289.945 415.5 301.945 412.5 315.945C409.5 329.945 394.5 354.945 394.5 354.945L333.5 374.945C333.5 374.945 329.5 393.945 335.5 393.945C341.5 393.945 408.5 379.945 410.5 376.945C412.5 373.945 455.5 316.945 455.5 316.945C455.5 316.945 459.5 285.945 429.5 289.945Z" fill="#D96942"/>
<path d="M379.593 245.166C379.002 245.675 378.294 246.031 377.532 246.2C377.15 246.269 376.756 246.183 376.436 245.961C376.117 245.74 375.898 245.402 375.828 245.02C375.387 246.243 374.568 247.294 373.489 248.019C372.344 248.616 370.573 248.116 370.408 246.835C370.241 247.807 369.811 248.715 369.164 249.461C368.827 249.817 368.363 250.027 367.872 250.043C367.382 250.059 366.905 249.882 366.545 249.548C367.046 252.289 366.737 255.107 366.894 257.889C367.052 260.67 367.794 263.619 369.895 265.448C372.96 268.116 377.569 267.458 381.6 266.952C382.21 266.824 382.843 266.859 383.435 267.052C384.944 267.696 384.876 269.797 384.896 271.438C385.019 274.316 386.159 277.058 388.112 279.177C390.065 281.295 392.706 282.653 395.565 283.008C397.166 283.255 398.798 282.857 400.105 281.9C401.249 280.93 401.834 279.349 403.146 278.62C405.279 277.434 407.867 279.164 409.427 281.041C410.987 282.918 412.524 285.227 414.941 285.571C418.137 286.026 420.571 282.769 421.765 279.769C423.413 275.566 424.203 271.075 424.087 266.562C423.972 262.048 422.954 257.603 421.093 253.49C414.42 238.943 391.623 236.642 379.593 245.166Z" fill="#2F2E41"/>
<path d="M801.888 652.903L800.111 651.985C823.193 607.361 810.85 549.41 796.432 508.653C786.642 481.259 774.155 454.905 759.154 429.979L760.845 428.91C775.923 453.963 788.475 480.451 798.317 507.985C812.868 549.115 825.297 607.645 801.888 652.903Z" fill="#2F2E41"/>
<path d="M819.007 429.269L806.032 500.273L807.999 500.632L820.973 429.628L819.007 429.269Z" fill="#2F2E41"/>
<path d="M732.732 489.763L731.268 491.126L798.267 563.126L799.732 561.763L732.732 489.763Z" fill="#2F2E41"/>
<path d="M853.181 568.853L819.197 615.864L820.818 617.036L854.803 570.025L853.181 568.853Z" fill="#2F2E41"/>
<path d="M825 410.445C830.523 410.445 835 405.967 835 400.445C835 394.922 830.523 390.445 825 390.445C819.477 390.445 815 394.922 815 400.445C815 405.967 819.477 410.445 825 410.445Z" fill="#D96942"/>
<path d="M716 487.445C721.523 487.445 726 482.967 726 477.445C726 471.922 721.523 467.445 716 467.445C710.477 467.445 706 471.922 706 477.445C706 482.967 710.477 487.445 716 487.445Z" fill="#3F3D56"/>
<path d="M760 497.445C765.523 497.445 770 492.967 770 487.445C770 481.922 765.523 477.445 760 477.445C754.477 477.445 750 481.922 750 487.445C750 492.967 754.477 497.445 760 497.445Z" fill="#3F3D56"/>
<path d="M740 536.445C745.523 536.445 750 531.967 750 526.445C750 520.922 745.523 516.445 740 516.445C734.477 516.445 730 520.922 730 526.445C730 531.967 734.477 536.445 740 536.445Z" fill="#D96942"/>
<path d="M865 561.445C870.523 561.445 875 556.967 875 551.445C875 545.922 870.523 541.445 865 541.445C859.477 541.445 855 545.922 855 551.445C855 556.967 859.477 561.445 865 561.445Z" fill="#3F3D56"/>
<path d="M832 572.445C837.523 572.445 842 567.967 842 562.445C842 556.922 837.523 552.445 832 552.445C826.477 552.445 822 556.922 822 562.445C822 567.967 826.477 572.445 832 572.445Z" fill="#3F3D56"/>
<path d="M855 604.445C860.523 604.445 865 599.967 865 594.445C865 588.922 860.523 584.445 855 584.445C849.477 584.445 845 588.922 845 594.445C845 599.967 849.477 604.445 855 604.445Z" fill="#3F3D56"/>
<path d="M750 422.445C755.523 422.445 760 417.967 760 412.445C760 406.922 755.523 402.445 750 402.445C744.477 402.445 740 406.922 740 412.445C740 417.967 744.477 422.445 750 422.445Z" fill="#3F3D56"/>
<path d="M903 651.445H0V653.445H903V651.445Z" fill="#2F2E41"/>
<path d="M154.935 444.372L70.0645 395.372L21.0645 480.242L105.935 529.242L154.935 444.372Z" fill="#FCF7F0"/>
<path d="M108 546.307C103.649 546.307 99.3954 545.017 95.7775 542.599C92.1596 540.182 89.3398 536.746 87.6747 532.726C86.0095 528.706 85.5739 524.282 86.4227 520.015C87.2716 515.747 89.3669 511.827 92.4437 508.751C95.5204 505.674 99.4404 503.578 103.708 502.73C107.976 501.881 112.399 502.316 116.419 503.982C120.439 505.647 123.875 508.466 126.292 512.084C128.71 515.702 130 519.956 130 524.307C129.993 530.14 127.673 535.732 123.549 539.856C119.425 543.98 113.833 546.3 108 546.307ZM108 504.307C104.044 504.307 100.178 505.48 96.8886 507.677C93.5996 509.875 91.0362 512.999 89.5224 516.653C88.0087 520.308 87.6126 524.329 88.3843 528.209C89.156 532.088 91.0608 535.652 93.8579 538.449C96.6549 541.246 100.219 543.151 104.098 543.923C107.978 544.694 111.999 544.298 115.654 542.784C119.308 541.271 122.432 538.707 124.629 535.418C126.827 532.129 128 528.263 128 524.307C127.994 519.004 125.885 513.921 122.136 510.171C118.386 506.422 113.303 504.313 108 504.307Z" fill="#3F3D56"/>
</g>
<defs>
<clipPath id="clip0_782_2">
<rect width="937.597" height="653.445" fill="white"/>
</clipPath>
</defs>
</svg>
