<svg width="383" height="389" viewBox="0 0 383 389" fill="none" xmlns="http://www.w3.org/2000/svg">
<path d="M93.5117 366.423L105.746 369.843L124.762 324.281L106.706 319.233L93.5117 366.423Z" fill="#FFB8B8"/>
<path d="M126.165 387.801L87.7138 377.051L91.8673 362.194L116.949 369.207C120.495 370.198 123.502 372.558 125.308 375.766C127.114 378.974 127.572 382.768 126.581 386.314L126.165 387.801Z" fill="#2F2E41"/>
<path d="M239.451 376.004L252.155 376.003L258.196 327.003L239.447 327.004L239.451 376.004Z" fill="#FFB8B8"/>
<path d="M276.656 387.797L236.731 387.801L236.729 372.375L262.773 372.373C264.596 372.372 266.401 372.731 268.085 373.429C269.77 374.126 271.3 375.149 272.589 376.438C273.878 377.727 274.901 379.257 275.599 380.941C276.297 382.625 276.656 384.43 276.656 386.253L276.656 387.797Z" fill="#2F2E41"/>
<path d="M145.049 172.574L115.809 244.205L235.206 271.028L236.729 230.952L182.513 173.205L145.049 172.574Z" fill="#B3B3B3"/>
<path d="M209.83 60.9873C223.056 53.7572 227.917 37.1742 220.686 23.948C213.456 10.7219 196.873 5.86112 183.647 13.0912C170.421 20.3212 165.56 36.9043 172.79 50.1304C180.02 63.3565 196.604 68.2173 209.83 60.9873Z" fill="#FFB8B8"/>
<path d="M216.24 168.611L162.196 146.488L157.384 114.76C155.967 105.486 158.18 96.023 163.562 88.3389C168.944 80.6549 177.082 75.3416 186.282 73.5042L193.43 72.0687C199.302 70.8929 205.373 71.1685 211.115 72.8714C216.857 74.5744 222.096 77.6532 226.377 81.8407C230.571 85.848 233.708 90.8316 235.506 96.3465C237.305 101.861 237.709 107.736 236.684 113.445C235.877 118.337 233.893 122.96 230.903 126.915C213.925 149.117 216.104 167.573 216.129 167.757L216.24 168.611Z" fill="#D96942"/>
<path d="M238.245 251.352L211.161 208.278L219.691 129.923L207.907 71.3221L208.534 71.3377C215.388 71.5069 221.914 74.3059 226.761 79.155C231.608 84.0042 234.405 90.5318 234.571 97.386L246.035 154.81L238.245 251.352Z" fill="#2F2E41"/>
<path d="M238.865 366.741C237.723 366.74 236.617 366.344 235.734 365.62C234.851 364.897 234.246 363.89 234.021 362.771L222.155 303.766C219.987 292.956 215.906 282.619 210.103 273.244L176.621 219.083C176.455 218.813 176.217 218.595 175.934 218.452C175.652 218.309 175.335 218.247 175.019 218.272C174.703 218.297 174.401 218.409 174.144 218.595C173.888 218.781 173.688 219.034 173.566 219.327L118.519 351.564C118.077 352.621 117.281 353.492 116.269 354.029C115.257 354.566 114.089 354.735 112.966 354.509L98.2609 351.511C97.0011 351.259 95.8894 350.525 95.1632 349.466C94.4369 348.406 94.1536 347.104 94.3735 345.839L106.37 275.141C108.817 260.731 112.986 246.667 118.789 233.252L159.416 139.358L219.371 159.049L223.327 201.031L251.029 268.11C252.944 272.742 254.088 277.656 254.417 282.658L259.535 360.183C259.615 361.477 259.185 362.75 258.339 363.732C257.492 364.714 256.295 365.326 255.004 365.437L239.272 366.724C239.135 366.735 238.999 366.741 238.865 366.741Z" fill="#2F2E41"/>
<path d="M129.491 270.562L110.483 252.52L146.405 114.003C148.684 105.294 152.957 97.2338 158.886 90.46C164.816 83.6861 172.239 78.3838 180.57 74.972L181.275 74.6849L179.355 158.99L129.491 270.562Z" fill="#2F2E41"/>
<path d="M190.378 64.2341C183.635 58.3979 181.584 47.5106 185.716 39.484C189.847 31.4575 199.726 27.1366 208.173 29.6613C216.129 32.0392 225.174 24.1075 224.204 15.6025C223.235 7.09752 212.656 1.55734 205.452 5.7826C199.997 3.59321 194.025 3.02632 188.255 4.1501C182.486 5.27387 177.163 8.04047 172.928 12.1172C164.465 20.408 161.255 33.9614 165.054 45.3584C168.853 56.7554 179.459 65.3838 190.378 64.2341Z" fill="#2F2E41"/>
<path d="M166.503 286.051C166.17 286.179 165.823 286.268 165.47 286.317L122.075 292.375C121.025 292.525 119.955 292.314 119.042 291.775C118.128 291.237 117.425 290.403 117.048 289.412L79.6951 192.217C79.4532 191.588 79.3498 190.914 79.392 190.241C79.4342 189.568 79.6209 188.912 79.9394 188.318C80.2579 187.724 80.7008 187.205 81.2378 186.798C81.7748 186.39 82.3934 186.103 83.0514 185.957L123.86 176.85C124.175 176.779 124.48 176.668 124.766 176.518L164.458 155.766C164.764 155.606 165.088 155.48 165.423 155.391L209.104 143.746C210.223 143.445 211.413 143.57 212.445 144.097C213.477 144.623 214.277 145.513 214.69 146.595L247.26 231.343C247.546 232.081 247.639 232.88 247.532 233.665C247.424 234.449 247.118 235.193 246.644 235.827L235.38 250.953C234.85 251.665 234.129 252.211 233.3 252.529L208.684 261.99C208.508 262.057 208.337 262.139 208.173 262.233L167.154 285.742C166.945 285.861 166.728 285.965 166.503 286.051Z" fill="white"/>
<path d="M186.692 156.702L181.145 158.182L166.446 162.102L166.42 162.108L146.295 172.631L138.826 176.537L138.823 176.538L127.606 182.402L127.298 182.472L115.646 185.07L110.014 186.329L87.0449 191.455L123.104 285.284L146.774 281.981L152.577 281.169L164.947 279.44L165.091 279.422L204.84 256.64L229.025 247.346L240.067 232.518L208.678 150.842L186.692 156.702Z" fill="#E6E6E6"/>
<path d="M213.85 164.298L94.2695 210.254L96.3174 215.583L215.897 169.627L213.85 164.298Z" fill="white"/>
<path d="M220.676 182.06L101.096 228.016L103.144 233.344L222.724 187.389L220.676 182.06Z" fill="white"/>
<path d="M234.464 217.939L114.884 263.895L116.932 269.223L236.512 223.268L234.464 217.939Z" fill="white"/>
<path d="M186.692 156.702L222.492 249.856L217.164 251.904L181.145 158.182L186.692 156.702Z" fill="white"/>
<path d="M146.295 172.631L138.944 193.085L136.395 200.18L130.449 216.735L129.175 220.274L127.9 223.83L126.221 228.499L114.17 262.037L111.037 253.884L120.863 226.535L123.086 220.343L123.412 219.439L126.041 212.118L129.358 202.885L131.907 195.789L138.823 176.538L138.826 176.537L146.295 172.631Z" fill="white"/>
<path opacity="0.1" d="M205.707 256.307L204.84 256.64L165.091 279.422L164.947 279.44L127.298 182.471L127.606 182.402L138.823 176.538L138.826 176.537L146.295 172.631L166.42 162.108L166.446 162.102L205.707 256.307Z" fill="black"/>
<path d="M166.682 286.518C166.313 286.659 165.93 286.758 165.539 286.813L122.144 292.87C120.982 293.036 119.798 292.802 118.787 292.206C117.776 291.61 116.998 290.688 116.581 289.591L79.2283 192.396C78.9607 191.7 78.8463 190.954 78.893 190.209C78.9397 189.465 79.1463 188.739 79.4988 188.082C79.8512 187.424 80.3413 186.851 80.9356 186.4C81.5299 185.949 82.2144 185.631 82.9425 185.468L123.751 176.362C124.023 176.3 124.286 176.204 124.534 176.075L164.226 155.323C164.565 155.145 164.923 155.006 165.293 154.907L208.975 143.263C210.213 142.93 211.531 143.069 212.672 143.651C213.814 144.233 214.699 145.218 215.157 146.416L247.726 231.164C248.043 231.981 248.146 232.865 248.027 233.733C247.908 234.601 247.57 235.424 247.045 236.126L235.781 251.251C235.195 252.039 234.397 252.644 233.48 252.996L208.864 262.456C208.711 262.515 208.563 262.585 208.421 262.667L167.402 286.175C167.171 286.308 166.931 286.422 166.682 286.518ZM82.9278 187.557C82.1383 187.86 81.5018 188.465 81.1581 189.238C80.8145 190.011 80.7918 190.889 81.0952 191.679L118.448 288.874C118.704 289.548 119.183 290.115 119.804 290.481C120.426 290.848 121.153 290.992 121.867 290.889L165.262 284.832C165.666 284.775 166.055 284.642 166.408 284.44L207.427 260.931C207.658 260.799 207.898 260.685 208.146 260.589L232.762 251.129C233.326 250.913 233.816 250.541 234.177 250.057L245.44 234.931C245.763 234.5 245.971 233.994 246.045 233.46C246.118 232.927 246.054 232.383 245.86 231.881L213.29 147.133C213.009 146.397 212.465 145.792 211.763 145.434C211.061 145.076 210.252 144.99 209.491 145.195L165.809 156.84C165.582 156.901 165.362 156.987 165.153 157.095L125.461 177.848C125.058 178.057 124.63 178.214 124.187 178.314L83.3783 187.421C83.225 187.455 83.0744 187.5 82.9278 187.557Z" fill="#E6E6E6"/>
<path d="M115.646 185.07L152.577 281.169L146.774 281.98L110.014 186.329L115.646 185.07Z" fill="white"/>
<path d="M126.267 223.86C127.739 223.86 128.931 222.667 128.931 221.196C128.931 219.725 127.739 218.532 126.267 218.532C124.796 218.532 123.604 219.725 123.604 221.196C123.604 222.667 124.796 223.86 126.267 223.86Z" fill="#3F3D56"/>
<path d="M220.723 226.699C222.194 226.699 223.387 225.507 223.387 224.035C223.387 222.564 222.194 221.371 220.723 221.371C219.251 221.371 218.059 222.564 218.059 224.035C218.059 225.507 219.251 226.699 220.723 226.699Z" fill="#D96942"/>
<path d="M221.801 175.92C224.824 183.787 221.186 209.859 219.906 218.228C219.866 218.493 219.756 218.743 219.588 218.952C219.42 219.162 219.199 219.323 218.948 219.419C218.698 219.515 218.426 219.543 218.161 219.501C217.896 219.458 217.647 219.346 217.439 219.176C210.884 213.818 190.722 196.893 187.698 189.026C186.838 186.786 186.427 184.4 186.488 182.002C186.55 179.603 187.084 177.241 188.059 175.049C189.034 172.857 190.431 170.879 192.17 169.227C193.91 167.575 195.957 166.282 198.197 165.421C200.436 164.561 202.823 164.15 205.221 164.212C207.619 164.273 209.981 164.807 212.173 165.782C214.365 166.757 216.343 168.154 217.995 169.893C219.647 171.633 220.94 173.68 221.801 175.92Z" fill="#D96942"/>
<path d="M204.75 192.367C210.215 192.367 214.645 187.937 214.645 182.473C214.645 177.008 210.215 172.578 204.75 172.578C199.285 172.578 194.855 177.008 194.855 182.473C194.855 187.937 199.285 192.367 204.75 192.367Z" fill="white"/>
<path d="M192.04 161.123C192.44 159.653 193.158 158.289 194.143 157.127C195.127 155.964 196.355 155.032 197.739 154.395C199.123 153.759 200.629 153.433 202.153 153.442C203.676 153.451 205.179 153.794 206.555 154.446L224.219 138.479L236.541 146.846L211.279 169.045C210.03 171.285 208.003 172.989 205.581 173.834C203.16 174.678 200.512 174.606 198.141 173.629C195.769 172.653 193.838 170.84 192.714 168.535C191.589 166.23 191.35 163.593 192.04 161.123Z" fill="#FFB8B8"/>
<path d="M220.501 166.334L206.655 147.543L238.222 127.341L215.597 95.0565C213.748 92.4187 212.938 89.1917 213.321 85.9935C213.704 82.7953 215.253 79.8507 217.672 77.7239C220.091 75.597 223.209 74.4373 226.43 74.467C229.651 74.4966 232.748 75.7135 235.127 77.8846L263.456 103.731C266.154 106.193 268.248 109.244 269.574 112.648C270.9 116.052 271.422 119.715 271.1 123.354C270.777 126.992 269.62 130.507 267.716 133.625C265.813 136.743 263.216 139.379 260.126 141.328L220.501 166.334Z" fill="#2F2E41"/>
<path d="M112.021 215.638C113.272 214.77 114.318 213.638 115.085 212.322C115.852 211.005 116.321 209.537 116.459 208.02C116.597 206.503 116.4 204.974 115.884 203.541C115.367 202.108 114.542 200.806 113.467 199.726L122.62 177.744L110.619 168.924L98.129 200.148C96.4347 202.074 95.5056 204.554 95.5177 207.118C95.5298 209.683 96.4822 212.154 98.1945 214.063C99.9069 215.973 102.26 217.188 104.808 217.478C107.357 217.768 109.923 217.113 112.021 215.638Z" fill="#FFB8B8"/>
<path d="M118.205 193.319L96.5586 188.278L112.689 141.763C115.469 133.737 119.57 126.231 124.823 119.557L151.139 86.0926C153.546 83.0316 157.068 81.0492 160.933 80.5797C164.799 80.1103 168.693 81.192 171.762 83.588C174.832 85.9839 176.826 89.4987 177.309 93.3625C177.792 97.2263 176.724 101.124 174.339 104.202L145.138 141.89L118.205 193.319Z" fill="#2F2E41"/>
<path d="M382 388.837H1C0.734784 388.837 0.480414 388.732 0.292877 388.544C0.105341 388.357 0 388.102 0 387.837C0 387.572 0.105341 387.318 0.292877 387.13C0.480414 386.943 0.734784 386.837 1 386.837H382C382.265 386.837 382.52 386.943 382.707 387.13C382.895 387.318 383 387.572 383 387.837C383 388.102 382.895 388.357 382.707 388.544C382.52 388.732 382.265 388.837 382 388.837Z" fill="#CCCCCC"/>
</svg>
